<?xml version="1.0" encoding="UTF-8"?><svg xmlns="http://www.w3.org/2000/svg" xmlns:xlink="http://www.w3.org/1999/xlink" viewBox="0 0 600 495.7"><defs><linearGradient id="uuid-89bbfa51-22b6-45a5-adf7-5db38b1184e8" x1="103.74" y1="359.97" x2="496.24" y2="-32.53" gradientUnits="userSpaceOnUse"><stop offset="0" stop-color="#3b36ff"/><stop offset="1" stop-color="#93ffff"/></linearGradient><clipPath id="uuid-9f0a43f4-80e1-4598-ba6d-ddd72f8e86f3"><rect x="-2660" width="2560" height="1440" transform="translate(-2760 1440) rotate(180)" style="fill:none;"/></clipPath><clipPath id="uuid-a8f99029-f120-4c55-a57b-7c086113b7fc"><rect x="-2660" y="-11.43" width="2560" height="1462.86" style="fill:none;"/></clipPath></defs><g style="isolation:isolate;"><g id="uuid-52c75319-420b-4f54-97ff-dc5b7d6af977"><path d="M530.78,17.1h.18c-17.27-7.62-54.22-13.47-101.02-17.1,27.9,10.32,46.32,25.85,58.3,40.35,.07,.07,.12,.15,.2,.25,.73,.83,1.38,1.63,1.98,2.45,.18,.23,.35,.45,.52,.7,1.48,1.87,2.8,3.75,4.05,5.57,6.47,8.55,11.2,16.52,13.72,27.82,.03,.12,.05,.2,.07,.3,.1,.33,.15,.53,.15,.6,1.3,6.13,2,13.23,2,21.87,0,15.28-13.75,17.58-21.85,17.58h-68.95c-48.05,0-74.47,31-74.47,87.3l-.07,38.35c-.1,.35-.1,.77,0,1.12l-.1,17.93v.52c.1,1.63,.1,3.25,.17,4.98,0,1.52,.08,3.17,.08,4.7,.25,8.18,.42,16.65,.42,25.58v19.67c-21.32,29.75-27.9,56.45-12.65,81.85,1.72,2.95-.05,6.72-3.35,7.3-19.47,3.38-40.77,3.4-60.3,0-3.3-.57-5.1-4.35-3.35-7.3,4.2-7.23,8.45-17.4,8.45-31.75s-7.68-29.85-21.1-50.1v-19.67c0-8.92,.15-17.4,.4-25.58,0-1.52,.1-3.17,.1-4.7,.08-1.72,.08-3.35,.15-4.98v-.52l-.07-17.93c.07-.35,.07-.77,0-1.12l-.08-38.35c0-56.3-26.45-87.3-74.47-87.3H110.93c-8.1,0-21.85-2.3-21.85-17.58,0-8.62,.68-15.7,2-21.82,0,0,0-.03,.03-.05,0-.05,.03-.15,.05-.27,.03-.07,.05-.18,.08-.27,2.55-11.67,7.45-19.8,14.15-28.62,.05-.07,.13-.18,.2-.27,.85-1.28,1.77-2.58,2.77-3.87,.08-.08,.13-.18,.18-.25,1.25-1.65,2.58-3.3,4-4.97,0-.03,.03-.05,.05-.07,11.98-14.22,30.2-29.3,57.5-39.42-46.7,3.63-83.57,9.47-100.85,17.1-87.97,33.27-95.92,142.95-1.75,180.82l6.25,16.3c8.57,22.47,24.67,38.2,47.77,46.77l4.1,1.55h.4c3.1,27.2,25.6,56.02,45.62,81.7,5.5,7.12,12.6,16.3,16.35,21.95-33.82,50.05,12.45,127.55,111.97,129.5,99.55-1.97,145.9-79.4,112.07-129.5,3.75-5.65,10.85-14.82,16.35-21.95,20.02-25.67,42.52-54.5,45.62-81.7h.4l4.1-1.55c23.1-8.57,39.17-24.3,47.77-46.77l6.25-16.3c94.28-37.95,86.1-147.62-1.75-180.82ZM24.78,108.32c0-49.52,52.62-72.35,70.05-73.97-33.9,22.12-53.65,106.95,16.1,108.9h68.95c17.77,0,41.52,4.55,47.87,41.02-5.77-3.07-13.18-5.82-22.45-5.82h-32.35c-3.33-.45-6.82,0-10.43,0h-61.7c-32.35,0-76.05-28.67-76.05-70.12ZM455.73,236.8h-6.43v19.48c0,33.72-63.62,92.17-63.62,108.3s12.6,15.87,12.6,40.35c0,18.1-29.45,65.05-98.32,65.05s-98.22-46.95-98.22-65.05c0-24.47,12.6-24.2,12.6-40.35s-63.63-74.57-63.63-108.3v-19.48c-22.37,1.8-45.17-9.62-53.55-31.6l-.15-.4h108.3c1.17,0,2.35,.08,3.43,.15,9.42,1.05,14.67,6.28,17.52,15.02,1.9,5.75,2.75,12.95,3.07,21.55,.57,15.1-.5,34.32-.5,56.45-44.27-27.97-11.75-61.17-45.02-61.17h-.43v14.57c0,21.55,66.55,91.67,66.55,116.37,0,20.08-13.6,25.22-13.6,36.47s27.1,30.97,63.63,30.97,63.72-19.72,63.72-30.97-13.6-16.4-13.6-36.47c0-24.7,66.55-94.82,66.55-116.37v-14.57h-.42c-33.28,0-.75,33.2-45.02,61.17,0-22.13-1.1-41.35-.5-56.45,.32-8.6,1.15-15.8,3.07-21.55,2.85-8.75,8.1-13.98,17.52-15.02,1.08-.07,2.25-.15,3.4-.15h108.32c-7.47,19.7-26.73,32-47.27,32Zm43.45-58.35h-61.72c-3.58,0-7.08-.45-10.43,0h-32.35c-9.25,0-16.67,2.75-22.42,5.82,6.35-36.47,30.1-41.02,47.87-41.02h68.95c69.82-1.97,49.92-86.85,16.1-108.9,17.43,1.63,70.05,24.45,70.05,73.97,0,41.45-43.7,70.12-76.05,70.12Z" style="fill:url(#uuid-89bbfa51-22b6-45a5-adf7-5db38b1184e8);"/></g></g></svg>