<?xml version="1.0" encoding="UTF-8"?>
<!DOCTYPE svg PUBLIC "-//W3C//DTD SVG 1.1//EN" "http://www.w3.org/Graphics/SVG/1.1/DTD/svg11.dtd">
<svg xmlns="http://www.w3.org/2000/svg" version="1.1" width="1417px" height="1211px" style="shape-rendering:geometricPrecision; text-rendering:geometricPrecision; image-rendering:optimizeQuality; fill-rule:evenodd; clip-rule:evenodd" xmlns:xlink="http://www.w3.org/1999/xlink">
<g><path style="opacity:0.984" fill="#689dff" d="M 428.5,89.5 C 431.518,89.3354 434.518,89.502 437.5,90C 374.098,114.076 324.598,154.91 289,212.5C 272.588,242.894 266.588,275.228 271,309.5C 276.175,323.662 286.342,331.495 301.5,333C 360.478,334.298 419.478,334.964 478.5,335C 545.314,342.484 587.481,378.651 605,443.5C 609.344,460.572 612.01,477.906 613,495.5C 613.364,580.835 613.364,666.168 613,751.5C 629.391,774.612 642.391,799.612 652,826.5C 658.593,851.783 657.593,876.783 649,901.5C 645.35,910.132 641.516,918.632 637.5,927C 638.029,932.53 641.029,935.864 646.5,937C 688.905,944.505 731.238,944.172 773.5,936C 777.966,932.901 779.466,928.735 778,923.5C 759.661,893.117 755.327,860.784 765,826.5C 773.475,799.547 786.142,774.881 803,752.5C 803.265,695.667 803.098,638.834 802.5,582C 802.406,550.152 802.906,518.319 804,486.5C 806.153,449.367 817.82,415.7 839,385.5C 864.782,354.525 897.948,337.691 938.5,335C 997.52,334.96 1056.52,334.293 1115.5,333C 1136.76,329.57 1147.43,317.07 1147.5,295.5C 1148.35,255.212 1136.18,219.545 1111,188.5C 1076.58,142.768 1032.41,109.934 978.5,90C 1025.78,92.6237 1072.78,97.9571 1119.5,106C 1173.25,113.896 1221.25,134.563 1263.5,168C 1331.2,229.978 1349.37,304.145 1318,390.5C 1298.53,430.303 1269.7,461.469 1231.5,484C 1219.23,490.967 1206.57,497.134 1193.5,502.5C 1186.07,522.94 1177.57,542.94 1168,562.5C 1152.4,588.098 1131.57,608.264 1105.5,623C 1094.12,628.566 1082.62,633.733 1071,638.5C 1065.84,667.982 1055.17,695.315 1039,720.5C 1030.58,733.672 1021.91,746.672 1013,759.5C 989.308,790.358 965.808,821.358 942.5,852.5C 965.115,888.638 970.615,927.304 959,968.5C 944.253,1012.25 917.753,1047.08 879.5,1073C 837.503,1100.11 791.503,1116.11 741.5,1121C 681.577,1126.87 624.244,1117.2 569.5,1092C 529.12,1072.28 496.954,1043.45 473,1005.5C 444.366,953.914 444.366,902.581 473,851.5C 451.384,822.216 429.384,793.216 407,764.5C 386.964,737.782 369.964,709.115 356,678.5C 350.846,665.206 347.013,651.539 344.5,637.5C 300.339,623.823 267.172,596.823 245,556.5C 237.28,539.06 230.114,521.393 223.5,503.5C 187.572,489.063 156.405,467.73 130,439.5C 80.0891,379.136 69.7558,312.469 99,239.5C 124.267,187.9 163.434,151.066 216.5,129C 246.114,116.929 276.781,108.596 308.5,104C 348.494,97.8725 388.494,93.0391 428.5,89.5 Z M 273.5,162.5 C 274.873,162.343 276.207,162.51 277.5,163C 254.537,181.065 238.037,203.899 228,231.5C 214.401,265.383 212.735,299.716 223,334.5C 234.627,361.452 254.793,378.285 283.5,385C 289.464,386.216 295.464,387.216 301.5,388C 356.833,388.333 412.167,388.667 467.5,389C 519.319,393.151 548.819,420.985 556,472.5C 546.188,467.007 535.688,463.507 524.5,462C 494.493,461.759 464.493,461.259 434.5,460.5C 386.173,461.622 337.84,461.789 289.5,461C 229.204,454.956 183.037,426.456 151,375.5C 125.53,321.129 131.863,270.796 170,224.5C 198.609,193.948 233.109,173.281 273.5,162.5 Z M 1139.5,163.5 C 1139.74,162.903 1140.24,162.57 1141,162.5C 1191.57,174.755 1231.57,202.089 1261,244.5C 1291.57,300.048 1286.9,352.381 1247,401.5C 1214.91,436.629 1175.07,456.463 1127.5,461C 1078.83,461.789 1030.16,461.623 981.5,460.5C 951.507,461.259 921.507,461.759 891.5,462C 880.312,463.507 869.812,467.007 860,472.5C 867.33,420.502 897.164,392.668 949.5,389C 1007.19,388.968 1064.86,388.301 1122.5,387C 1165.81,380.357 1191.31,355.524 1199,312.5C 1203.43,260.844 1188.76,215.51 1155,176.5C 1149.96,171.956 1144.79,167.622 1139.5,163.5 Z M 286.5,516.5 C 361.501,516.333 436.501,516.5 511.5,517C 536.467,518.073 551.301,530.907 556,555.5C 559.918,577.985 561.418,600.652 560.5,623.5C 560.22,652.17 559.72,680.837 559,709.5C 534.536,694.701 517.869,673.701 509,646.5C 506.109,632.93 503.776,619.264 502,605.5C 499.603,594.103 492.77,586.937 481.5,584C 475.877,582.971 470.21,582.471 464.5,582.5C 461.536,604.359 465.036,625.026 475,644.5C 485.5,662.172 496.5,679.505 508,696.5C 536.731,734.954 563.731,774.621 589,815.5C 596.735,828.539 601.568,842.539 603.5,857.5C 602.955,870.68 599.455,883.013 593,894.5C 589,900.5 585,906.5 581,912.5C 574.197,923.705 573.864,935.038 580,946.5C 594.23,963.212 611.73,975.379 632.5,983C 673.682,997.908 715.682,1000.58 758.5,991C 781.927,985.284 803.26,975.284 822.5,961C 827.7,956.135 832.533,950.968 837,945.5C 841.526,938.293 842.526,930.626 840,922.5C 832.427,909.694 825.094,896.694 818,883.5C 812.609,869.212 811.942,854.878 816,840.5C 822.773,823.619 831.106,807.619 841,792.5C 867.087,754.659 893.42,716.992 920,679.5C 930.264,664.649 939.264,648.982 947,632.5C 948.535,628.227 949.869,623.894 951,619.5C 951.5,607.171 951.667,594.838 951.5,582.5C 942.843,582.276 934.51,583.776 926.5,587C 919.169,591.816 915.002,598.649 914,607.5C 912.317,620.951 909.983,634.284 907,647.5C 901.156,666.687 890.656,682.854 875.5,696C 869.599,700.867 863.433,705.367 857,709.5C 856.532,679.499 856.032,649.499 855.5,619.5C 854.988,598.345 856.488,577.345 860,556.5C 864.57,531.589 879.403,518.422 904.5,517C 979.833,516.333 1055.17,516.333 1130.5,517C 1108.12,563.71 1070.79,585.543 1018.5,582.5C 1023.39,615.771 1017.89,647.104 1002,676.5C 990.912,696.352 978.579,715.352 965,733.5C 940.937,763.963 917.604,794.963 895,826.5C 884.018,843.213 883.685,860.213 894,877.5C 917.264,909.806 918.264,942.806 897,976.5C 869.933,1015.86 833.433,1042.7 787.5,1057C 725.431,1074.78 664.431,1071.78 604.5,1048C 569.656,1032.49 541.489,1008.99 520,977.5C 497.792,942.307 499.125,907.973 524,874.5C 532.789,859.243 532.456,844.243 523,829.5C 519.333,823.833 515.667,818.167 512,812.5C 490.333,784.167 468.667,755.833 447,727.5C 430.719,705.285 416.719,681.618 405,656.5C 402.595,649.953 400.595,643.286 399,636.5C 397.6,618.537 397.1,600.537 397.5,582.5C 353.885,585.106 319.385,568.773 294,533.5C 290.932,528.036 288.432,522.369 286.5,516.5 Z"/></g>
</svg>
