<svg xmlns="http://www.w3.org/2000/svg" width="456" height="67.5"  xmlns:v="https://vecta.io/nano"><path d="M88.5 47.3h6.4V36.7h16.5v-4.6H94.9v-7.3h18.5v-4.6H88.5zm56.6-24c-1.4-1.2-3.1-2.1-5.2-2.7s-4.5-1-7.2-1-5.1.3-7.2.9-3.8 1.5-5.2 2.7c-1.3 1.1-2.3 2.5-3 4.1s-1 3.3-1 5.2V35c0 1.9.3 3.6 1 5.2s1.7 2.9 3 4.1c1.4 1.2 3.1 2.1 5.2 2.7s4.5.9 7.2.9 5.1-.3 7.2-1c2.1-.6 3.8-1.6 5.2-2.7 1.3-1.1 2.3-2.5 3-4.1s1-3.3 1-5.2v-2.4c0-1.9-.3-3.6-1-5.2-.7-1.5-1.7-2.9-3-4zm-2.6 11.8c0 1.3-.2 2.4-.7 3.4s-1.1 1.9-2 2.6-1.9 1.2-3.1 1.6-2.5.5-4 .5c-1.4 0-2.8-.2-4-.5-1.2-.4-2.2-.9-3.1-1.6s-1.5-1.6-2-2.6-.7-2.2-.7-3.4v-2.6c0-1.3.2-2.5.7-3.5s1.1-1.9 2-2.6 1.9-1.2 3.1-1.6 2.5-.5 4-.5a16.2 16.2 0 0 1 4 .5c1.2.4 2.2.9 3.1 1.6s1.5 1.6 2 2.6.7 2.2.7 3.5v2.6zm41.1-11.8c-1.4-1.2-3.1-2.1-5.2-2.7s-4.5-1-7.2-1-5.1.3-7.2.9-3.8 1.5-5.2 2.7c-1.3 1.1-2.3 2.5-3 4.1s-1 3.3-1 5.2V35c0 1.9.3 3.6 1 5.2s1.7 2.9 3 4.1c1.4 1.2 3.1 2.1 5.2 2.7s4.5.9 7.2.9 5.1-.3 7.2-1c2.1-.6 3.8-1.6 5.2-2.7 1.3-1.1 2.3-2.5 3-4.1s1-3.3 1-5.2v-2.4c0-1.9-.3-3.6-1-5.2-.7-1.5-1.7-2.9-3-4zM181 35.1c0 1.3-.2 2.4-.7 3.4s-1.1 1.9-2 2.6-1.9 1.2-3.1 1.6-2.5.5-4 .5c-1.4 0-2.8-.2-4-.5s-2.2-.9-3.1-1.6-1.5-1.6-2-2.6-.7-2.2-.7-3.4v-2.6c0-1.3.2-2.5.7-3.5s1.1-1.9 2-2.6 1.9-1.2 3.1-1.6 2.5-.5 4-.5a16.2 16.2 0 0 1 4 .5c1.2.4 2.2.9 3.1 1.6s1.5 1.6 2 2.6.7 2.2.7 3.5v2.6zm9.2-10.3h11.3v22.5h6.4V24.8h11.3v-4.6h-29zm60.6-1.1c-1.3-1.1-2.8-2-4.7-2.6s-4.1-.9-6.7-.9h-15.8v27.1h15.8c2.6 0 4.9-.3 6.8-.9s3.5-1.5 4.8-2.7c1.2-1.1 2-2.3 2.6-3.8.6-1.4.8-3 .8-4.7v-2.9c0-1.7-.3-3.3-.9-4.8s-1.5-2.7-2.7-3.8zm-2.9 11.1c0 1.3-.2 2.4-.6 3.4s-1 1.8-1.8 2.5-1.7 1.2-2.8 1.5a13.61 13.61 0 0 1-3.6.5h-8.9V24.8h8.9c1.5 0 2.8.2 3.9.6s2.1.9 2.8 1.7c.7.7 1.3 1.5 1.7 2.4s.6 2 .6 3v2.3zm14.3-14.6h6.5v27.1h-6.5zm39.5 14.4c-.7-.6-1.7-1.1-2.8-1.5a26.43 26.43 0 0 0-4.1-1.1l-6.7-1.1c-1.7-.3-2.9-.7-3.6-1.2s-1.1-1.2-1.1-2.2c0-.9.4-1.7 1.3-2.3 1.1-.8 2.8-1.1 5.2-1.1 2.7 0 4.7.4 6 1.3 1 .7 1.7 1.7 1.9 3.2h5.8c-.1-1.3-.4-2.5-1-3.6s-1.4-2-2.5-2.8c-2.4-1.7-5.7-2.5-10.2-2.5-3.1 0-5.7.4-7.7 1.2-1.8.7-3.2 1.6-4.1 2.9-.8 1.1-1.2 2.4-1.2 3.8 0 2.1.7 3.7 2 5 1.3 1.2 3.4 2.1 6.3 2.6l7.3 1.3c1.7.3 2.9.7 3.7 1.2s1.2 1.2 1.2 2.2c0 1.1-.5 2-1.6 2.6-1.2.7-3.1 1.1-5.5 1.1-2.9 0-5-.5-6.4-1.6-.6-.4-1-.9-1.2-1.5-.3-.5-.4-1.1-.4-1.7h-6.1c0 1.3.3 2.5.9 3.6s1.5 2.1 2.7 2.9c1.2.9 2.7 1.5 4.5 2s3.8.7 6 .7c4.5 0 7.9-.7 10.2-2.1 1.2-.7 2-1.5 2.6-2.6.6-1 .9-2.2.9-3.6 0-1.1-.2-2.1-.6-2.9-.4-.9-.9-1.6-1.7-2.2zm5-9.8H318v22.5h6.5V24.8h11.2v-4.6h-29zm56.7 11.1c1.7-.6 3.1-1.4 4-2.3 1.1-1.1 1.6-2.6 1.6-4.3v-.7c0-2.7-.9-4.8-2.8-6.2-1.8-1.4-4.5-2.1-7.9-2.1H341v27.1h6.4v-10h7.7l8 10.1 7.2-.1-8.6-10.9c1.1-.3 1.7-.6 1.7-.6zm-16-11.3H358c1.6 0 2.7.4 3.5 1.1.7.7 1 1.6 1 2.8v.3c0 1.3-.5 2.3-1.5 2.9-1 .7-2.4 1-4.2 1h-9.4v-8.1zm30.6-4.4h6.5v27.1H378zm36.3 21.3c-1.6 1.2-3.6 1.7-6.1 1.7a16 16 0 0 1-3.9-.5c-1.2-.4-2.2-.9-3.1-1.6s-1.6-1.6-2-2.6c-.5-1-.7-2.2-.7-3.5v-2.7c0-1.3.2-2.4.7-3.5.5-1 1.1-1.9 2-2.6s1.9-1.2 3.1-1.6 2.5-.5 4-.5c2.4 0 4.4.6 6 1.7 1.5 1.1 2.5 2.6 2.9 4.5h6.4c-.3-1.6-.7-3.1-1.5-4.4-.7-1.3-1.7-2.5-3-3.4-1.3-1-2.8-1.7-4.7-2.3-1.8-.5-3.9-.8-6.1-.8-2.7 0-5.1.3-7.2.9s-3.8 1.5-5.2 2.7c-1.3 1.1-2.3 2.5-3 4.1s-1 3.3-1 5.2V35c0 1.9.3 3.6 1 5.2s1.7 2.9 3 4.1c1.4 1.2 3.1 2.1 5.2 2.7s4.5.9 7.2.9a24.09 24.09 0 0 0 6.3-.8c1.8-.6 3.4-1.3 4.7-2.4 1.2-1 2.2-2.1 2.9-3.4s1.2-2.7 1.4-4.2h-6.4c-.5 1.9-1.4 3.4-2.9 4.4zm11.6-21.3v4.6h11.3v22.5h6.4V24.8h11.3v-4.6zM1.1 1.1v65.3h65.3V1.1H1.1zm20.4 59.7H6.7v-54h33.5v14.8H21.5v39.2zm18.8-33.6v13.2H27.2V27.2h13.1zm20.5 33.6H27.2V46h18.7V6.7h14.9v54.1z"/></svg>